<svg width="23" height="23" viewBox="0 0 23 23" fill="none" xmlns="http://www.w3.org/2000/svg">
<path d="M22.4504 0H17.0889C16.7855 0 16.5395 0.246 16.5395 0.549451C16.5395 0.852901 16.7855 1.0989 17.0889 1.0989H21.2009L11.3079 10.992C11.0933 11.2065 11.0933 11.5544 11.3079 11.7689C11.5224 11.9835 11.8703 11.9835 12.0849 11.7689L21.9009 1.95286V5.87253C21.9009 6.17598 22.1469 6.42198 22.4504 6.42198C22.7538 6.42198 22.9998 6.17598 22.9998 5.87253V0.549451C22.9999 0.246077 22.7537 8.24176e-05 22.4504 0C22.4505 0 22.4503 0 22.4504 0Z" fill="white"/>
<path d="M20.903 8.61038C20.6116 8.69476 20.4437 8.99932 20.528 9.29076C22.0025 14.3966 19.0587 19.7311 13.9529 21.2056C8.84699 22.6801 3.51254 19.7364 2.03801 14.6305C0.563481 9.52465 3.50725 4.19018 8.61311 2.71565C10.2493 2.24314 11.9815 2.21331 13.633 2.62922C13.9269 2.7046 14.2263 2.52743 14.3017 2.23349C14.3771 1.93955 14.1999 1.64015 13.906 1.56477C13.9044 1.56437 13.9029 1.56397 13.9013 1.56358C8.15263 0.111486 2.31527 3.59454 0.863184 9.34319C-0.588904 15.0918 2.89415 20.9292 8.64279 22.3813C14.3914 23.8334 20.2288 20.3503 21.6809 14.6017C22.1476 12.7542 22.1141 10.8157 21.5839 8.98545C21.4998 8.69405 21.1955 8.526 20.9041 8.61008L20.903 8.61038Z" fill="white"/>
</svg>
