<svg width="216" height="52" viewBox="0 0 216 52" fill="none" xmlns="http://www.w3.org/2000/svg">
<mask id="mask0_29_275" style="mask-type:luminance" maskUnits="userSpaceOnUse" x="0" y="0" width="216" height="52">
<path d="M215.379 0H0.5V52H215.379V0Z" fill="white"/>
</mask>
<g mask="url(#mask0_29_275)">
<path d="M212.359 48.6431C212.491 48.6442 212.621 48.6186 212.743 48.5676C212.865 48.5167 212.974 48.4416 213.066 48.347C213.157 48.2524 213.227 48.1401 213.273 48.0173C213.318 47.8942 213.338 47.7634 213.33 47.6327C213.33 46.9166 212.894 46.5743 211.999 46.5743H210.554V50.3248H211.097V48.6901H211.766L211.781 48.7099L212.818 50.3248H213.399L212.284 48.6532L212.359 48.6431ZM211.73 48.2672H211.099V46.9993H211.898C212.311 46.9993 212.782 47.0661 212.782 47.6017C212.782 48.2181 212.305 48.2672 211.726 48.2672" fill="white"/>
<path d="M0.5 7.63129H8.52712V36.6058H23.3876V43.9469H0.5V7.63129Z" fill="white"/>
<path d="M26.9364 19.3239H34.6478V43.9331H26.9364V19.3239ZM30.7921 7.08926C31.6768 7.08944 32.5416 7.34955 33.2772 7.83676C34.0127 8.32394 34.5859 9.01633 34.9244 9.82638C35.2629 10.6364 35.3513 11.5277 35.1786 12.3876C35.0059 13.2474 34.5798 14.0372 33.9542 14.6571C33.3285 15.277 32.5314 15.6991 31.6637 15.8701C30.796 16.0411 29.8965 15.9532 29.0792 15.6177C28.2618 15.2822 27.5632 14.714 27.0717 13.985C26.5802 13.256 26.3179 12.399 26.3179 11.5222C26.3179 10.94 26.4336 10.3635 26.6584 9.82566C26.8833 9.28774 27.2129 8.79902 27.6284 8.38739C28.0438 7.97572 28.5371 7.6492 29.0799 7.42651C29.6228 7.20377 30.2046 7.08916 30.7921 7.08926Z" fill="white"/>
<path d="M66.9053 7.62564H74.6169V29.3288L83.3564 19.3126H92.811L82.6899 30.7059L92.5981 43.9436H82.906L74.7196 31.7789H74.6183V43.9418H66.9071L66.9053 7.62564Z" fill="white"/>
<path d="M38.9238 19.3265H46.3293V22.6896H46.4343C47.174 21.4338 48.2439 20.4007 49.5299 19.7006C50.8162 19.0004 52.2699 18.6595 53.7362 18.7144C61.556 18.7144 62.9954 23.8128 62.9954 30.4364V43.932H55.2839V31.9671C55.2839 29.111 55.231 25.4398 51.2677 25.4398C47.2593 25.4398 46.6409 28.5498 46.6409 31.7593V43.9288H38.9293L38.9238 19.3265Z" fill="white"/>
<path d="M109.051 28.766C109.066 28.1461 108.953 27.5296 108.72 26.954C108.488 26.3783 108.14 25.8555 107.697 25.4171C107.254 24.9788 106.726 24.634 106.145 24.4038C105.564 24.1735 104.942 24.0625 104.317 24.0776C102.969 23.9945 101.643 24.4394 100.623 25.3165C99.604 26.1935 98.9732 27.4324 98.8672 28.766H109.051ZM115.583 39.6713C114.302 41.2111 112.691 42.4493 110.867 43.2962C109.043 44.143 107.052 44.5774 105.038 44.5676C97.3265 44.5676 91.1523 39.4669 91.1523 31.568C91.1523 23.6692 97.3258 18.5708 105.038 18.5708C112.246 18.5708 116.766 23.6652 116.766 31.568V33.964H98.8672C99.0898 35.3228 99.8008 36.556 100.869 37.4364C101.937 38.3168 103.29 38.7851 104.679 38.7552C105.776 38.7483 106.855 38.4699 107.816 37.9445C108.777 37.4194 109.591 36.664 110.182 35.7478L115.583 39.6713Z" fill="white"/>
<path d="M132.839 25.2726C128.984 25.2726 126.67 27.8238 126.67 31.5412C126.67 35.2585 128.982 37.812 132.839 37.812C136.695 37.812 139.014 35.2649 139.014 31.5412C139.014 27.8174 136.699 25.2726 132.839 25.2726ZM146.113 43.9288H139.014V40.6651H138.909C138.018 41.8521 136.863 42.8195 135.533 43.4915C134.203 44.1635 132.735 44.5225 131.242 44.5402C123.833 44.5402 118.952 39.2409 118.952 31.7473C118.952 24.8651 123.271 18.5456 130.372 18.5456C133.563 18.5456 136.544 19.4108 138.292 21.8092H138.394V7.62354H146.112L146.113 43.9288Z" fill="white"/>
<path d="M198.172 43.9433H190.461V31.976C190.461 29.1223 190.41 25.4487 186.45 25.4487C182.434 25.4487 181.819 28.5579 181.819 31.7682V43.9422H174.108V19.3329H181.511V22.6961H181.614C182.355 21.4408 183.426 20.4082 184.712 19.7081C185.999 19.0081 187.452 18.6669 188.919 18.7208C196.734 18.7208 198.176 23.8153 198.176 30.4429L198.172 43.9433ZM165.407 15.9691C164.522 15.9692 163.656 15.7093 162.921 15.2221C162.185 14.735 161.611 14.0425 161.272 13.2322C160.933 12.422 160.844 11.5304 161.017 10.6701C161.189 9.80987 161.615 9.01962 162.241 8.39934C162.867 7.77906 163.664 7.35656 164.532 7.18528C165.4 7.01401 166.3 7.10168 167.118 7.43719C167.936 7.77266 168.635 8.34094 169.127 9.0701C169.618 9.79929 169.881 10.6566 169.881 11.5337C169.881 12.116 169.766 12.6927 169.541 13.2308C169.316 13.7688 168.987 14.2577 168.571 14.6696C168.155 15.0815 167.662 15.4082 167.119 15.6312C166.576 15.8541 165.994 15.9689 165.407 15.9691ZM169.262 43.9433H161.543V19.3329H169.262V43.9433ZM202.017 0.00351371H157.668C156.662 -0.00774291 155.692 0.377473 154.972 1.07451C154.251 1.77156 153.84 2.72339 153.828 3.72085V47.8508C153.84 48.8486 154.251 49.8012 154.971 50.4989C155.691 51.1969 156.661 51.5826 157.668 51.5721H202.017C203.026 51.5847 203.999 51.1998 204.722 50.5021C205.445 49.8041 205.858 48.8507 205.873 47.8508V3.71768C205.858 2.71823 205.444 1.76531 204.721 1.06829C203.998 0.371262 203.025 -0.0128532 202.017 0.000328393" fill="white"/>
<path d="M211.795 44.9038C210.857 44.9125 209.961 45.2895 209.302 45.9514C208.643 46.6137 208.276 47.5074 208.28 48.4373C208.285 49.3671 208.661 50.2573 209.326 50.9131C209.991 51.5688 210.891 51.9372 211.829 51.9372C212.768 51.9372 213.668 51.5688 214.333 50.9131C214.998 50.2573 215.374 49.3671 215.378 48.4373C215.383 47.5074 215.015 46.6137 214.357 45.9514C213.698 45.2895 212.802 44.9125 211.864 44.9038H211.795ZM211.795 51.5345C211.18 51.5446 210.575 51.3735 210.058 51.0434C209.54 50.713 209.133 50.2381 208.889 49.6784C208.644 49.1191 208.571 48.5001 208.682 47.8999C208.792 47.2998 209.079 46.7455 209.507 46.3071C209.934 45.8687 210.484 45.5661 211.086 45.4372C211.687 45.3083 212.314 45.3588 212.886 45.5827C213.459 45.8069 213.951 46.1941 214.302 46.6953C214.652 47.1969 214.844 47.7898 214.855 48.3997C214.855 48.4174 214.855 48.434 214.855 48.4514C214.872 49.2516 214.568 50.0254 214.01 50.6032C213.451 51.181 212.683 51.5154 211.876 51.5327H211.796" fill="white"/>
</g>
</svg>
