<svg width="74" height="57" viewBox="0 0 74 57" fill="none" xmlns="http://www.w3.org/2000/svg">
<path d="M69.39 1.22C68.0832 0.421674 66.5814 -0.000491549 65.05 4.2951e-07H8.36C6.81694 0.0103163 5.30723 0.450071 4 1.27C2.78109 2.00942 1.7729 3.04999 1.07238 4.29166C0.371858 5.53333 0.0025624 6.93435 0 8.36L0 47.7C0.00265009 49.9155 0.884603 52.0393 2.45212 53.6049C4.01964 55.1706 6.14452 56.05 8.36 56.05H65.05C67.2655 56.05 69.3904 55.1706 70.9579 53.6049C72.5254 52.0393 73.4074 49.9155 73.41 47.7V8.36C73.414 6.92397 73.0457 5.51142 72.3412 4.26008C71.6367 3.00875 70.6199 1.96134 69.39 1.22ZM64.1 4L36.7 28.1L9.22 4H64.1ZM69.41 47.7C69.4074 48.8546 68.9468 49.961 68.1295 50.7765C67.3121 51.592 66.2046 52.05 65.05 52.05H8.36C7.20539 52.05 6.09792 51.592 5.28054 50.7765C4.46317 49.961 4.00265 48.8546 4 47.7V8.36C4.00179 7.35162 4.35546 6.37549 5 5.6L35.4 32.26C35.7646 32.5816 36.2339 32.7593 36.72 32.76C36.8331 32.7696 36.9469 32.7696 37.06 32.76H37.24H37.4L37.7 32.61C37.8079 32.5481 37.9086 32.4743 38 32.39L68.39 5.56C69.0441 6.34561 69.3985 7.33775 69.39 8.36L69.41 47.7Z" fill="white"/>
</svg>
