<svg width="55" height="56" viewBox="0 0 55 56" fill="none" xmlns="http://www.w3.org/2000/svg">
<path d="M53.5 7.2C52.82 5.95 51.86 4.88 50.74 4.03C48.92 1.59 46.01 0 42.8 0H10C4.5 0 0 4.5 0 9.9V44.1C0 47.37 1.56 50.26 3.96 52.02C4.82 53.18 5.92 54.14 7.2 54.8C8.6 55.6 10.2 56 11.9 56H44.7C47.4 56 50 54.9 51.9 53C53.7 51.1 54.7 48.6 54.7 46V11.8C54.7 10.2 54.3 8.6 53.5 7.2ZM2.64 8.48C3.21 5.54 5.51 3.23 8.51 2.65C8.99 2.56 9.49 2.51 10 2.51H42.8C44.5 2.51 46 3.11 47.3 4.01C49.1 5.41 50.3 7.51 50.3 9.91V13.92H2.5V9.91C2.5 9.42 2.55 8.95 2.64 8.49V8.48ZM48.1 49.4C46.7 50.8 44.8 51.6 42.7 51.6H9.9C7.5 51.6 5.3 50.4 4 48.6C3 47.3 2.5 45.8 2.5 44.1V16.41H50.28L50.2 44.2C50.2 46.1 49.5 48 48.1 49.4Z" fill="white"/>
<path d="M38.4299 25.02H11.6499C10.9599 25.02 10.3999 25.58 10.3999 26.27C10.3999 26.96 10.9599 27.52 11.6499 27.52H38.4299C39.1199 27.52 39.6799 26.96 39.6799 26.27C39.6799 25.58 39.1199 25.02 38.4299 25.02Z" fill="white"/>
<path d="M30.9399 32.89H11.6499C10.9599 32.89 10.3999 33.45 10.3999 34.14C10.3999 34.83 10.9599 35.39 11.6499 35.39H30.9399C31.6299 35.39 32.1899 34.83 32.1899 34.14C32.1899 33.45 31.6299 32.89 30.9399 32.89Z" fill="white"/>
</svg>
