<svg width="86" height="42" viewBox="0 0 86 42" fill="none" xmlns="http://www.w3.org/2000/svg">
<path d="M65.21 0.709991C76.3594 0.709991 85.5 9.8408 85.5 21C85.5 32.1591 76.3594 41.29 65.21 41.29H20.79C9.63134 41.29 0.5 32.1586 0.5 21C0.5 9.84125 9.63134 0.709991 20.79 0.709991H65.21ZM65.21 1.70999H20.79C10.1688 1.70999 1.5 10.3786 1.5 21C1.5 31.6212 10.1688 40.29 20.79 40.29H65.21C75.8207 40.29 84.5 31.6208 84.5 21C84.5 10.3791 75.8207 1.70999 65.21 1.70999Z" stroke="white"/>
<path d="M20.3401 8.51999C27.2238 8.51999 32.8201 14.1163 32.8201 21C32.8201 27.8747 27.2245 33.48 20.3401 33.48C13.4647 33.48 7.86011 27.8754 7.86011 21C7.86011 14.1156 13.4654 8.51999 20.3401 8.51999ZM20.3401 9.51999C13.9949 9.51999 8.86011 14.6443 8.86011 21C8.86011 27.3445 13.9956 32.48 20.3401 32.48C26.6957 32.48 31.8201 27.3452 31.8201 21C31.8201 14.6436 26.6964 9.51999 20.3401 9.51999Z" stroke="white"/>
</svg>
